<svg xmlns="http://www.w3.org/2000/svg" viewBox="0 0 1600 900"><defs><linearGradient id="s" x1="0" y1="0" x2="0" y2="1"><stop stop-color="#d9b36c"/><stop offset=".5" stop-color="#7da0b1"/><stop offset="1" stop-color="#244b64"/></linearGradient></defs><rect width="1600" height="900" fill="url(#s)"/><circle cx="1240" cy="190" r="82" fill="#f6deae" opacity=".75"/><path d="M0 620 Q260 560 520 620 T1040 620 T1600 610 V900 H0Z" fill="#18374b"/><path d="M880 620v-180h100v180m-84-180q34-75 68 0m-52-72v-95h34v95m-145 252v-135h65v135m-28-135q26-55 52 0m220 135v-225h120v225m-100-225q40-90 80 0m-49-87v-125h18v125m-490 282h650" stroke="#102d40" stroke-width="18" fill="none"/><path d="M220 650h360l90 50H120z" fill="#f2eee1" opacity=".9"/><path d="M260 650v-160h210v160m-185-160 70-85 70 85" fill="#e6ded0" stroke="#17324a" stroke-width="10"/><path d="M200 695h520" stroke="#b5874c" stroke-width="8"/></svg>