<svg xmlns="http://www.w3.org/2000/svg" viewBox="0 0 1600 900"><defs><linearGradient id="bg" x1="0" y1="0" x2="0" y2="1"><stop stop-color="#120f18"/><stop offset="1" stop-color="#3b1a20"/></linearGradient><radialGradient id="r"><stop stop-color="#d95a45" stop-opacity=".95"/><stop offset="1" stop-color="#d95a45" stop-opacity="0"/></radialGradient></defs><rect width="1600" height="900" fill="url(#bg)"/><g fill="none" stroke="#bd7b63" stroke-width="34"><path d="M80 760V260q0-90 90-90t90 90v500"/><path d="M330 760V220q0-80 80-80t80 80v540"/><path d="M590 760V255q0-92 92-92t92 92v505"/><path d="M850 760V225q0-82 82-82t82 82v535"/><path d="M1110 760V250q0-90 90-90t90 90v510"/><path d="M1370 760V215q0-75 75-75t75 75v545"/></g><g opacity=".65"><circle cx="200" cy="650" r="210" fill="url(#r)"/><circle cx="720" cy="640" r="230" fill="url(#r)"/><circle cx="1250" cy="650" r="210" fill="url(#r)"/></g><path d="M0 760Q400 700 800 760t800 0v140H0z" fill="#26131a"/><path d="M0 790Q400 740 800 790t800 0" fill="none" stroke="#8f3d36" stroke-width="8" opacity=".7"/></svg>